<svg width="1200" height="960" viewBox="0 0 1200 960" fill="none" xmlns="http://www.w3.org/2000/svg">
  <defs>
    <linearGradient id="bg3" x1="86" y1="64" x2="1084" y2="884" gradientUnits="userSpaceOnUse">
      <stop stop-color="#0F3A72"/>
      <stop offset="0.5" stop-color="#0C2B59"/>
      <stop offset="1" stop-color="#091C39"/>
    </linearGradient>
    <radialGradient id="glow3" cx="0" cy="0" r="1" gradientUnits="userSpaceOnUse" gradientTransform="translate(946 214) rotate(132.137) scale(310 220)">
      <stop stop-color="#75D4FF" stop-opacity="0.72"/>
      <stop offset="1" stop-color="#75D4FF" stop-opacity="0"/>
    </radialGradient>
    <linearGradient id="glass3" x1="138" y1="124" x2="952" y2="790" gradientUnits="userSpaceOnUse">
      <stop stop-color="white" stop-opacity="0.18"/>
      <stop offset="1" stop-color="white" stop-opacity="0.04"/>
    </linearGradient>
    <filter id="shadow3" x="110" y="110" width="980" height="744" filterUnits="userSpaceOnUse" color-interpolation-filters="sRGB">
      <feDropShadow dx="0" dy="36" stdDeviation="42" flood-color="#07192E" flood-opacity="0.32"/>
    </filter>
  </defs>

  <rect width="1200" height="960" rx="44" fill="url(#bg3)"/>
  <ellipse cx="962" cy="226" rx="254" ry="192" fill="url(#glow3)"/>
  <circle cx="242" cy="758" r="204" fill="#FFFFFF" fill-opacity="0.06"/>

  <g filter="url(#shadow3)">
    <rect x="148" y="132" width="904" height="668" rx="40" fill="url(#glass3)" stroke="#C4E0FF" stroke-opacity="0.16"/>
  </g>

  <rect x="194" y="176" width="262" height="188" rx="28" fill="#FFFFFF" fill-opacity="0.08" stroke="#C4E0FF" stroke-opacity="0.14"/>
  <rect x="194" y="404" width="262" height="188" rx="28" fill="#FFFFFF" fill-opacity="0.08" stroke="#C4E0FF" stroke-opacity="0.14"/>
  <rect x="744" y="286" width="262" height="188" rx="28" fill="#FFFFFF" fill-opacity="0.08" stroke="#C4E0FF" stroke-opacity="0.14"/>
  <rect x="470" y="224" width="260" height="356" rx="34" fill="#FFFFFF" fill-opacity="0.08" stroke="#C4E0FF" stroke-opacity="0.14"/>

  <g>
    <circle cx="594" cy="404" r="24" fill="#EFF8FF"/>
    <circle cx="594" cy="404" r="58" fill="#EFF8FF" fill-opacity="0.08"/>
    <circle cx="594" cy="404" r="112" fill="none" stroke="#A1E0FF" stroke-opacity="0.2" stroke-width="2"/>
  </g>

  <g opacity="0.84">
    <path d="M322 270C374 270 450 332 540 388" stroke="#74D1FF" stroke-width="3" stroke-linecap="round"/>
    <path d="M322 500C392 500 448 458 548 420" stroke="#A5FFF2" stroke-width="3" stroke-linecap="round"/>
    <path d="M650 398C734 390 794 364 876 318" stroke="#74D1FF" stroke-width="3" stroke-linecap="round"/>
    <path d="M648 430C740 458 788 504 878 560" stroke="#A5FFF2" stroke-width="3" stroke-linecap="round"/>
  </g>

  <g>
    <circle cx="322" cy="270" r="16" fill="#9BE0FF"/>
    <circle cx="322" cy="500" r="16" fill="#B2FFF6"/>
    <circle cx="876" cy="318" r="16" fill="#9BE0FF"/>
    <circle cx="878" cy="560" r="16" fill="#B2FFF6"/>
    <circle cx="594" cy="404" r="12" fill="#EFF8FF"/>
  </g>

  <g>
    <rect x="224" y="210" width="112" height="14" rx="7" fill="#DDF4FF"/>
    <rect x="224" y="242" width="184" height="8" rx="4" fill="#A7CBEF" fill-opacity="0.54"/>
    <rect x="224" y="270" width="144" height="8" rx="4" fill="#A7CBEF" fill-opacity="0.38"/>
    <path d="M226 326L260 298L290 312L320 286L346 300L384 264" stroke="#74D1FF" stroke-width="3.5" stroke-linecap="round" stroke-linejoin="round"/>
  </g>

  <g>
    <rect x="224" y="438" width="120" height="14" rx="7" fill="#DDF4FF"/>
    <rect x="224" y="470" width="184" height="8" rx="4" fill="#A7CBEF" fill-opacity="0.54"/>
    <rect x="224" y="498" width="142" height="8" rx="4" fill="#A7CBEF" fill-opacity="0.38"/>
    <rect x="224" y="536" width="164" height="22" rx="11" fill="#A5FFF2" fill-opacity="0.16"/>
  </g>

  <g>
    <rect x="504" y="262" width="134" height="14" rx="7" fill="#DDF4FF"/>
    <rect x="504" y="294" width="192" height="8" rx="4" fill="#A7CBEF" fill-opacity="0.54"/>
    <rect x="504" y="322" width="166" height="8" rx="4" fill="#A7CBEF" fill-opacity="0.38"/>
    <path d="M520 512H678" stroke="#C4E0FF" stroke-opacity="0.16" stroke-width="2"/>
    <path d="M528 476L570 436L600 458L642 392L676 412" stroke="#B2FFF6" stroke-width="3.5" stroke-linecap="round" stroke-linejoin="round"/>
  </g>

  <g>
    <rect x="776" y="320" width="128" height="14" rx="7" fill="#DDF4FF"/>
    <rect x="776" y="352" width="186" height="8" rx="4" fill="#A7CBEF" fill-opacity="0.54"/>
    <rect x="776" y="380" width="144" height="8" rx="4" fill="#A7CBEF" fill-opacity="0.38"/>
    <circle cx="838" cy="430" r="18" fill="#9BE0FF"/>
    <circle cx="890" cy="430" r="18" fill="#74D1FF"/>
    <circle cx="942" cy="430" r="18" fill="#B2FFF6"/>
  </g>

  <text x="188" y="864" fill="#EAF7FF" fill-opacity="0.86" font-family="Lexend, Arial, sans-serif" font-size="34" font-weight="600" letter-spacing="-1">Alliance, research and contact pathways</text>
  <text x="188" y="904" fill="#9EC3E8" fill-opacity="0.9" font-family="Source Sans 3, Arial, sans-serif" font-size="22">Use the homepage as an entry point, then expand to events, collaboration pages and contact flows.</text>
</svg>
