<svg width="1600" height="880" viewBox="0 0 1600 880" fill="none" xmlns="http://www.w3.org/2000/svg">
  <defs>
    <linearGradient id="bg2" x1="96" y1="58" x2="1490" y2="804" gradientUnits="userSpaceOnUse">
      <stop stop-color="#F6FBFF"/>
      <stop offset="0.48" stop-color="#E5F2FF"/>
      <stop offset="1" stop-color="#D8EAFF"/>
    </linearGradient>
    <linearGradient id="glass2" x1="224" y1="126" x2="1182" y2="742" gradientUnits="userSpaceOnUse">
      <stop stop-color="white" stop-opacity="0.82"/>
      <stop offset="1" stop-color="white" stop-opacity="0.4"/>
    </linearGradient>
    <radialGradient id="glow2" cx="0" cy="0" r="1" gradientUnits="userSpaceOnUse" gradientTransform="translate(1270 198) rotate(137.113) scale(310 236)">
      <stop stop-color="#74D1FF" stop-opacity="0.46"/>
      <stop offset="1" stop-color="#74D1FF" stop-opacity="0"/>
    </radialGradient>
    <filter id="shadow2" x="122" y="90" width="1354" height="722" filterUnits="userSpaceOnUse" color-interpolation-filters="sRGB">
      <feDropShadow dx="0" dy="30" stdDeviation="34" flood-color="#6394D2" flood-opacity="0.16"/>
    </filter>
  </defs>
  <rect width="1600" height="880" rx="44" fill="url(#bg2)"/>
  <ellipse cx="1260" cy="192" rx="252" ry="186" fill="url(#glow2)"/>
  <ellipse cx="250" cy="720" rx="244" ry="128" fill="#FFFFFF" fill-opacity="0.66"/>

  <g filter="url(#shadow2)">
    <rect x="162" y="126" width="1276" height="626" rx="34" fill="url(#glass2)" stroke="#74D1FF" stroke-opacity="0.22"/>
  </g>

  <rect x="206" y="170" width="356" height="540" rx="28" fill="#FFFFFF" fill-opacity="0.7" stroke="#74D1FF" stroke-opacity="0.18"/>
  <rect x="594" y="170" width="800" height="224" rx="28" fill="#FFFFFF" fill-opacity="0.74" stroke="#74D1FF" stroke-opacity="0.18"/>
  <rect x="594" y="426" width="384" height="284" rx="28" fill="#FFFFFF" fill-opacity="0.74" stroke="#74D1FF" stroke-opacity="0.18"/>
  <rect x="1010" y="426" width="384" height="284" rx="28" fill="#093063" fill-opacity="0.88" stroke="#ADE1FF" stroke-opacity="0.16"/>

  <g>
    <rect x="246" y="218" width="120" height="16" rx="8" fill="#0E5DDD"/>
    <rect x="246" y="254" width="240" height="10" rx="5" fill="#8AAED8"/>
    <rect x="246" y="280" width="188" height="10" rx="5" fill="#A9C7E8"/>
    <rect x="246" y="320" width="272" height="84" rx="18" fill="#74D1FF" fill-opacity="0.12"/>
    <path d="M268 382L304 344L338 356L378 314L418 326L470 278L506 296" stroke="#2191FF" stroke-width="4" stroke-linecap="round" stroke-linejoin="round"/>
    <rect x="246" y="440" width="270" height="10" rx="5" fill="#8AAED8"/>
    <rect x="246" y="466" width="224" height="10" rx="5" fill="#A9C7E8"/>
    <rect x="246" y="516" width="272" height="146" rx="22" fill="#0D2D5B"/>
    <path d="M278 590H486" stroke="#ADE1FF" stroke-opacity="0.22" stroke-width="2"/>
    <path d="M278 618H486" stroke="#ADE1FF" stroke-opacity="0.16" stroke-width="2"/>
    <path d="M278 646H486" stroke="#ADE1FF" stroke-opacity="0.1" stroke-width="2"/>
    <circle cx="330" cy="566" r="18" fill="#9BE0FF"/>
    <circle cx="382" cy="566" r="18" fill="#74D1FF"/>
    <circle cx="434" cy="566" r="18" fill="#B2FFF6"/>
  </g>

  <g>
    <rect x="632" y="210" width="132" height="16" rx="8" fill="#0E5DDD"/>
    <rect x="632" y="246" width="410" height="10" rx="5" fill="#93B6DE"/>
    <rect x="632" y="272" width="344" height="10" rx="5" fill="#B3D2F1"/>
    <rect x="632" y="314" width="724" height="42" rx="20" fill="#74D1FF" fill-opacity="0.12"/>
    <circle cx="1216" cy="284" r="56" fill="#74D1FF" fill-opacity="0.14" stroke="#74D1FF" stroke-opacity="0.34" stroke-width="2"/>
    <path d="M1174 284C1188 258 1218 248 1244 260C1266 270 1278 292 1270 316C1260 344 1224 358 1198 344C1170 328 1160 306 1174 284Z" stroke="#74D1FF" stroke-width="2.4"/>
    <path d="M1162 350L1292 350" stroke="#74D1FF" stroke-opacity="0.22" stroke-width="2"/>
  </g>

  <g>
    <rect x="632" y="462" width="128" height="16" rx="8" fill="#0E5DDD"/>
    <rect x="632" y="500" width="292" height="10" rx="5" fill="#93B6DE"/>
    <rect x="632" y="528" width="224" height="10" rx="5" fill="#B3D2F1"/>
    <path d="M652 646H918" stroke="#4C7CBF" stroke-opacity="0.18" stroke-width="2"/>
    <path d="M672 618V566" stroke="#2191FF" stroke-width="10" stroke-linecap="round"/>
    <path d="M740 618V530" stroke="#74D1FF" stroke-width="10" stroke-linecap="round"/>
    <path d="M808 618V550" stroke="#B2FFF6" stroke-width="10" stroke-linecap="round"/>
    <path d="M876 618V508" stroke="#0E5DDD" stroke-width="10" stroke-linecap="round"/>
  </g>

  <g>
    <rect x="1048" y="464" width="142" height="16" rx="8" fill="#DDF4FF"/>
    <rect x="1048" y="500" width="280" height="10" rx="5" fill="#7FB7F1" fill-opacity="0.72"/>
    <rect x="1048" y="528" width="208" height="10" rx="5" fill="#7FB7F1" fill-opacity="0.44"/>
    <circle cx="1114" cy="610" r="18" fill="#B2FFF6"/>
    <circle cx="1210" cy="582" r="18" fill="#74D1FF"/>
    <circle cx="1304" cy="642" r="18" fill="#9BE0FF"/>
    <path d="M1114 610L1210 582L1304 642" stroke="#A5FFF2" stroke-width="3.5" stroke-linecap="round" stroke-linejoin="round"/>
    <path d="M1088 666H1350" stroke="#C4E0FF" stroke-opacity="0.18" stroke-width="2"/>
  </g>

  <text x="208" y="102" fill="#0B2340" fill-opacity="0.68" font-family="Lexend, Arial, sans-serif" font-size="34" font-weight="600" letter-spacing="-1">Archive, analysis and research system</text>
</svg>
